<!DOCTYPE svg PUBLIC "-//W3C//DTD SVG 20010904//EN" "http://www.w3.org/TR/2001/REC-SVG-20010904/DTD/svg10.dtd">
<svg version="1.0" xmlns="http://www.w3.org/2000/svg" width="783px" height="706px" viewBox="0 0 7830 7060" preserveAspectRatio="xMidYMid meet">
<g id="layer101" fill="#0f76dd" stroke="none">
 <path d="M0 3530 l0 -3530 3915 0 3915 0 0 3530 0 3530 -3915 0 -3915 0 0 -3530z"/>
 </g>
<g id="layer102" fill="#2883de" stroke="none">
 <path d="M0 3530 l0 -3530 3915 0 3915 0 0 3530 0 3530 -3915 0 -3915 0 0 -3530z m3033 2185 c63 -26 141 -108 179 -187 20 -40 118 -272 218 -515 101 -244 187 -443 190 -443 6 0 129 291 216 508 l37 94 -38 91 c-105 252 -181 467 -166 467 4 0 22 -13 41 -30 19 -16 41 -29 48 -30 6 0 12 -6 12 -14 0 -7 7 -19 16 -26 26 -22 66 -98 115 -219 26 -64 51 -117 56 -118 5 -2 27 41 48 94 45 116 84 189 139 261 36 46 92 89 103 78 2 -2 -19 -68 -47 -147 -105 -294 -121 -343 -126 -390 -3 -27 -2 -54 2 -61 4 -7 9 -25 11 -40 6 -58 189 -498 210 -505 9 -3 87 176 242 554 50 123 122 287 159 366 l69 143 73 43 c40 23 74 40 75 39 10 -11 -182 -485 -363 -898 -49 -113 -109 -251 -132 -307 -45 -110 -62 -132 -83 -115 -7 6 -32 12 -56 14 l-43 3 -131 308 c-73 169 -136 307 -142 307 -12 0 -291 -617 -289 -637 5 -41 -101 19 -149 84 -19 27 -49 80 -67 118 -57 126 -341 788 -377 880 -55 139 -93 245 -89 245 2 0 19 -7 39 -15z"/>
 </g>
<g id="layer103" fill="#3f9dfc" stroke="none">
 <path d="M0 3530 l0 -3530 3915 0 3915 0 0 3530 0 3530 -3915 0 -3915 0 0 -3530z m3777 2126 c45 -51 132 -217 154 -296 17 -62 24 -67 39 -28 74 186 119 267 192 340 78 80 100 87 87 30 -9 -41 -62 -198 -84 -247 -7 -16 -21 -55 -30 -85 -10 -30 -21 -59 -26 -64 -5 -6 -9 -20 -9 -32 0 -12 -7 -40 -15 -64 -16 -45 -15 -52 37 -205 39 -117 163 -395 176 -395 4 0 22 33 40 73 18 39 39 85 47 100 8 16 15 33 15 38 0 6 12 36 26 67 28 62 42 95 55 130 5 12 13 32 18 45 5 12 16 43 26 69 9 26 21 50 26 53 5 4 9 14 9 24 0 10 11 40 25 67 14 27 25 54 25 61 0 7 26 65 59 130 32 65 64 132 70 148 9 23 34 44 99 83 48 28 88 47 90 42 2 -5 -4 -24 -12 -41 -9 -18 -16 -36 -16 -42 0 -5 -6 -23 -14 -40 -7 -18 -33 -85 -56 -150 -23 -64 -46 -120 -51 -123 -5 -3 -9 -11 -9 -19 0 -17 -175 -430 -196 -462 -8 -12 -14 -27 -14 -32 0 -10 -56 -137 -85 -194 -8 -16 -15 -33 -15 -38 0 -5 -13 -37 -29 -71 -15 -35 -34 -78 -41 -97 -13 -33 -14 -33 -64 -28 -92 10 -99 16 -140 119 -21 51 -45 108 -52 125 -8 18 -21 48 -30 68 -8 19 -21 50 -30 70 -38 90 -48 112 -61 137 -7 14 -13 31 -13 37 0 6 -8 24 -19 41 l-18 31 -26 -53 c-14 -29 -40 -87 -57 -128 -18 -41 -41 -91 -51 -110 -11 -19 -19 -38 -19 -42 0 -4 -18 -47 -40 -95 -73 -159 -77 -168 -88 -195 -14 -33 -17 -34 -68 -9 -52 25 -108 87 -139 154 -13 29 -43 91 -65 138 -22 47 -40 92 -40 100 0 8 -4 19 -9 24 -5 6 -39 82 -76 170 -36 88 -72 171 -80 185 -7 14 -27 61 -45 105 -18 44 -43 103 -55 130 -13 28 -42 104 -65 170 -23 66 -46 128 -52 138 -16 31 0 32 55 5 119 -59 166 -128 277 -413 24 -60 54 -132 66 -160 12 -27 39 -93 59 -145 21 -52 48 -117 60 -145 13 -27 40 -90 60 -140 20 -49 41 -94 47 -100 10 -11 47 30 48 55 0 8 12 38 25 65 14 28 25 54 25 58 0 5 12 34 26 65 36 79 43 98 93 231 l32 84 -62 156 c-34 86 -68 170 -76 188 -7 17 -13 38 -13 46 0 9 -4 19 -10 22 -5 3 -10 14 -10 24 0 10 -6 31 -14 47 -8 16 -17 44 -21 61 l-7 33 43 -23 c23 -12 61 -44 86 -71z"/>
 <path d="M3610 4590 c0 -5 5 -10 10 -10 6 0 10 5 10 10 0 6 -4 10 -10 10 -5 0 -10 -4 -10 -10z"/>
 </g>
<g id="layer104" fill="#51a5fa" stroke="none">
 <path d="M0 3530 l0 -3530 3915 0 3915 0 0 3530 0 3530 -3915 0 -3915 0 0 -3530z m3777 2126 c45 -51 132 -217 154 -296 17 -62 24 -67 39 -28 74 186 119 267 192 340 78 80 100 87 87 30 -9 -41 -62 -198 -84 -247 -7 -16 -21 -55 -30 -85 -10 -30 -21 -59 -26 -64 -5 -6 -9 -20 -9 -32 0 -12 -7 -40 -15 -64 -16 -45 -15 -52 37 -205 39 -117 163 -395 176 -395 4 0 22 33 40 73 18 39 39 85 47 100 8 16 15 33 15 38 0 6 12 36 26 67 28 62 42 95 55 130 5 12 13 32 18 45 5 12 16 43 26 69 9 26 21 50 26 53 5 4 9 14 9 24 0 10 11 40 25 67 14 27 25 54 25 61 0 7 26 65 59 130 32 65 64 132 70 148 9 23 34 44 99 83 48 28 88 47 90 42 2 -5 -4 -24 -12 -41 -9 -18 -16 -36 -16 -42 0 -5 -6 -23 -14 -40 -7 -18 -33 -85 -56 -150 -23 -64 -46 -120 -51 -123 -5 -3 -9 -11 -9 -19 0 -17 -175 -430 -196 -462 -8 -12 -14 -27 -14 -32 0 -10 -56 -137 -85 -194 -8 -16 -15 -33 -15 -38 0 -5 -13 -37 -29 -71 -15 -35 -34 -78 -41 -97 -13 -33 -14 -33 -64 -28 -92 10 -99 16 -140 119 -21 51 -45 108 -52 125 -8 18 -21 48 -30 68 -8 19 -21 50 -30 70 -38 90 -48 112 -61 137 -7 14 -13 31 -13 37 0 6 -8 24 -19 41 l-18 31 -26 -53 c-14 -29 -40 -87 -57 -128 -18 -41 -41 -91 -51 -110 -11 -19 -19 -38 -19 -42 0 -4 -18 -47 -40 -95 -73 -159 -77 -168 -88 -195 -14 -33 -17 -34 -68 -9 -52 25 -108 87 -139 154 -13 29 -43 91 -65 138 -22 47 -40 92 -40 100 0 8 -4 19 -9 24 -5 6 -39 82 -76 170 -36 88 -72 171 -80 185 -7 14 -27 61 -45 105 -18 44 -43 103 -55 130 -13 28 -42 104 -65 170 -23 66 -46 128 -52 138 -16 31 0 32 55 5 119 -59 166 -128 277 -413 24 -60 54 -132 66 -160 12 -27 39 -93 59 -145 21 -52 48 -117 60 -145 13 -27 40 -90 60 -140 20 -49 41 -94 47 -100 10 -11 47 30 48 55 0 8 12 38 25 65 14 28 25 54 25 58 0 5 12 34 26 65 36 79 43 98 93 231 l32 84 -62 156 c-34 86 -68 170 -76 188 -7 17 -13 38 -13 46 0 9 -4 19 -10 22 -5 3 -10 14 -10 24 0 10 -6 31 -14 47 -8 16 -17 44 -21 61 l-7 33 43 -23 c23 -12 61 -44 86 -71z m-365 -1456 c-1 -7 5 -24 15 -39 9 -14 18 -34 18 -43 1 -10 9 -26 18 -36 10 -10 15 -21 12 -24 -6 -6 81 -215 98 -236 6 -8 11 -21 12 -30 1 -10 82 -205 181 -434 157 -368 204 -460 204 -404 0 8 8 29 17 48 9 18 23 46 31 61 8 16 11 31 8 34 -3 4 0 13 8 22 18 21 108 232 101 239 -3 3 2 14 12 24 9 10 17 26 18 36 0 9 9 30 19 45 10 15 16 30 12 34 -3 4 0 13 8 22 18 21 108 232 101 239 -3 3 2 14 12 24 9 10 17 26 18 36 0 9 9 29 18 43 10 15 17 31 15 35 -1 5 6 22 16 37 10 15 16 30 12 34 -3 4 0 13 8 22 15 17 96 203 96 220 0 7 38 11 104 11 104 0 105 0 125 -29 12 -16 21 -34 21 -41 0 -7 6 -24 13 -38 8 -15 21 -44 30 -65 9 -20 24 -54 33 -75 8 -20 22 -50 30 -65 8 -16 14 -33 14 -38 0 -6 11 -36 26 -67 26 -59 43 -97 68 -157 38 -88 49 -112 62 -138 8 -16 14 -33 14 -38 0 -6 11 -36 26 -67 14 -31 31 -70 38 -87 7 -16 21 -48 30 -70 10 -22 24 -53 30 -70 20 -48 47 -108 62 -138 8 -16 14 -33 14 -38 0 -6 11 -36 26 -67 26 -59 43 -97 68 -157 9 -20 22 -51 30 -70 38 -88 49 -112 62 -138 8 -16 14 -33 14 -38 0 -6 11 -36 26 -67 44 -100 60 -135 101 -232 8 -19 21 -48 29 -63 8 -16 14 -33 14 -38 0 -6 11 -36 26 -67 33 -75 53 -119 71 -162 8 -19 22 -51 30 -70 8 -19 22 -51 30 -70 36 -84 46 -106 54 -123 9 -16 1 -17 -132 -15 -134 3 -142 4 -144 23 -3 25 -63 175 -78 193 -6 8 -12 21 -12 30 -3 27 -85 225 -101 243 -8 9 -12 18 -9 21 7 6 -63 179 -81 199 -8 9 -12 18 -9 21 6 5 -62 177 -78 196 -6 8 -12 21 -12 30 -3 27 -85 225 -101 243 -8 9 -12 18 -9 21 7 6 -63 179 -81 199 -8 9 -12 18 -9 21 7 6 -63 179 -81 199 -8 9 -12 18 -9 21 6 5 -62 177 -78 196 -6 8 -12 21 -12 30 -3 27 -85 225 -101 243 -8 9 -12 18 -9 21 6 5 -42 127 -58 146 -8 10 -19 -8 -45 -70 -19 -46 -41 -98 -48 -115 -35 -80 -48 -110 -60 -138 -15 -38 -37 -89 -60 -140 -9 -22 -23 -53 -30 -70 -7 -16 -24 -55 -38 -85 -13 -30 -32 -75 -41 -100 -10 -25 -28 -68 -41 -97 -13 -28 -24 -56 -24 -62 0 -5 -7 -22 -15 -38 -27 -53 -65 -142 -65 -153 0 -6 -7 -21 -15 -34 -22 -33 -26 -85 -11 -115 20 -38 40 -87 67 -161 7 -19 23 -60 36 -90 31 -69 38 -86 54 -130 7 -19 23 -60 36 -90 32 -71 37 -83 64 -155 12 -33 33 -85 46 -115 31 -69 38 -86 54 -130 14 -40 56 -136 70 -162 17 -33 10 -38 -55 -38 -86 0 -186 11 -181 20 6 10 -43 130 -61 151 -8 9 -11 19 -7 22 3 4 -1 15 -10 25 -10 10 -14 22 -11 25 4 4 1 14 -6 23 -8 8 -15 23 -15 32 -3 23 -84 225 -96 236 -5 6 -9 18 -9 27 0 9 -7 22 -15 29 -8 7 -13 16 -10 20 7 11 -109 293 -123 298 -7 2 -15 -5 -18 -15 -8 -23 -24 -63 -35 -85 -21 -41 -232 -574 -234 -590 0 -9 -7 -23 -14 -32 -7 -8 -10 -19 -7 -24 3 -6 -1 -15 -10 -22 -8 -7 -13 -19 -10 -26 3 -7 -2 -18 -10 -25 -8 -7 -13 -18 -10 -25 3 -7 -2 -18 -10 -24 -8 -7 -14 -19 -14 -26 0 -11 -24 -14 -115 -14 -63 0 -115 2 -115 5 0 2 5 17 11 32 6 15 15 37 19 48 9 26 23 57 53 125 13 30 39 93 56 140 47 122 59 151 94 230 13 30 39 93 56 140 18 47 37 95 42 108 25 61 32 78 40 94 16 31 79 192 79 201 0 9 -41 102 -65 150 -8 16 -15 33 -15 38 0 10 -39 102 -65 152 -8 16 -15 33 -15 38 0 10 -39 102 -65 152 -8 16 -15 33 -15 38 0 6 -11 36 -26 67 -14 31 -31 71 -39 87 -7 17 -21 50 -30 75 -9 25 -27 68 -39 95 -13 28 -38 86 -56 130 -17 44 -35 85 -40 90 -4 6 -10 22 -14 38 -3 15 -10 27 -15 27 -8 0 -76 -165 -76 -186 0 -6 -5 -18 -12 -25 -16 -20 -84 -191 -78 -197 3 -3 -1 -12 -9 -21 -18 -20 -68 -143 -61 -149 3 -3 -1 -12 -9 -21 -18 -20 -88 -193 -81 -199 3 -3 -1 -12 -9 -21 -18 -20 -88 -193 -81 -199 3 -3 -1 -12 -9 -21 -18 -20 -68 -143 -61 -149 3 -3 -2 -14 -12 -24 -9 -10 -13 -21 -10 -25 4 -3 1 -13 -7 -22 -18 -20 -68 -143 -61 -149 3 -3 -1 -12 -9 -21 -18 -20 -88 -193 -81 -199 3 -3 -1 -12 -9 -21 -18 -20 -88 -193 -81 -199 3 -3 -1 -12 -9 -21 -18 -20 -68 -143 -61 -149 3 -3 -2 -14 -12 -24 -9 -10 -13 -21 -10 -25 4 -3 1 -13 -7 -22 -18 -20 -68 -143 -61 -149 3 -3 -2 -13 -10 -22 -9 -10 -15 -24 -13 -31 2 -11 -25 -15 -140 -17 l-143 -3 15 28 c28 52 66 142 66 155 0 8 4 18 9 24 5 5 24 45 41 89 41 102 53 129 114 265 13 30 32 75 41 100 9 25 23 59 30 75 52 115 65 145 80 185 9 25 23 60 31 77 8 18 21 47 29 65 8 18 25 58 39 88 13 30 32 75 41 100 9 25 23 59 30 75 52 115 65 145 80 185 9 25 23 59 30 75 52 115 65 145 80 185 9 25 23 59 30 75 52 115 65 145 80 185 10 25 28 68 41 97 13 28 24 59 24 67 0 8 4 17 9 20 4 3 16 27 26 53 38 104 141 298 158 298 21 0 152 38 161 47 12 10 52 -16 48 -32z"/>
 <path d="M3610 4590 c0 -5 5 -10 10 -10 6 0 10 5 10 10 0 6 -4 10 -10 10 -5 0 -10 -4 -10 -10z"/>
 </g>
<g id="layer105" fill="#bccad6" stroke="none">
 <path d="M0 3530 l0 -3530 3915 0 3915 0 0 3530 0 3530 -3915 0 -3915 0 0 -3530z m3714 2182 c78 -59 132 -136 185 -268 26 -65 53 -120 58 -121 6 -2 21 25 33 59 36 100 101 219 145 267 40 44 111 101 126 101 4 0 -17 -73 -48 -162 -32 -90 -76 -219 -99 -288 l-41 -125 23 -85 c12 -47 40 -128 62 -180 79 -187 128 -294 138 -297 10 -3 56 100 214 487 50 124 126 297 167 386 l75 161 86 51 c48 28 88 48 90 43 7 -21 -224 -598 -373 -931 -18 -41 -57 -129 -85 -195 -28 -66 -61 -142 -73 -169 l-21 -48 -71 7 c-38 4 -71 8 -73 10 -1 1 -59 132 -127 291 -69 159 -129 298 -134 309 l-9 20 -7 -20 c-5 -11 -27 -62 -51 -113 -24 -52 -44 -96 -44 -98 0 -3 -14 -35 -31 -72 -18 -37 -58 -128 -90 -201 -33 -74 -63 -139 -68 -144 -31 -31 -141 60 -193 160 -36 68 -73 151 -189 423 -34 80 -84 197 -111 260 -45 103 -181 448 -195 493 -3 9 0 17 6 17 20 0 94 -41 138 -77 67 -54 84 -89 275 -553 44 -107 95 -231 113 -275 18 -44 46 -111 62 -149 16 -38 34 -71 41 -74 14 -4 11 -9 166 372 l77 189 -62 151 c-117 283 -164 426 -142 426 4 0 30 -17 57 -38z m-263 -1587 c382 -899 502 -1174 510 -1169 5 3 9 10 9 16 0 5 6 24 14 41 8 18 123 288 256 601 133 313 246 578 251 588 9 16 23 18 123 18 l113 0 549 -1291 c302 -710 551 -1295 552 -1300 2 -6 -56 -8 -139 -7 l-142 3 -104 255 c-652 1595 -827 2020 -833 2020 -4 0 -69 -143 -143 -317 -279 -654 -347 -817 -347 -836 0 -7 99 -256 220 -552 121 -296 220 -544 220 -552 0 -15 -82 -18 -187 -7 l-60 7 -116 286 c-211 524 -240 592 -249 589 -4 -2 -85 -194 -178 -426 -94 -233 -175 -432 -180 -443 -10 -17 -23 -19 -125 -19 -90 0 -115 3 -115 14 0 7 75 197 166 422 91 225 190 471 220 547 l56 138 -41 97 c-210 509 -440 1047 -448 1049 -5 2 -217 -507 -472 -1129 -255 -623 -466 -1137 -470 -1141 -4 -4 -69 -6 -144 -5 l-136 3 36 85 c19 47 218 519 443 1050 224 531 438 1037 475 1125 61 146 133 286 154 299 19 12 178 55 196 53 14 -1 31 -29 66 -112z"/>
 </g>
<g id="layer106" fill="#f6f6f6" stroke="none">
 <path d="M0 3530 l0 -3530 3915 0 3915 0 0 3530 0 3530 -3915 0 -3915 0 0 -3530z m4430 3156 c388 -62 648 -141 958 -287 306 -145 524 -293 797 -545 361 -333 634 -735 810 -1189 228 -590 280 -1231 148 -1835 -57 -263 -128 -469 -247 -715 -169 -348 -347 -597 -630 -881 -428 -427 -943 -717 -1517 -855 -381 -91 -869 -103 -1314 -33 -395 63 -826 234 -1185 472 -211 140 -325 235 -530 441 -241 242 -420 486 -565 772 -185 364 -294 728 -341 1133 -21 181 -15 591 10 776 35 252 106 519 202 757 345 857 1004 1500 1879 1833 200 76 389 124 625 159 194 30 190 29 480 26 225 -3 289 -7 420 -29z"/>
 <path d="M3630 6594 c-434 -52 -832 -189 -1221 -422 -440 -262 -831 -652 -1075 -1073 -211 -363 -328 -679 -398 -1080 -78 -441 -60 -845 59 -1314 197 -776 719 -1465 1430 -1887 234 -139 395 -213 626 -288 597 -196 1240 -206 1829 -28 483 145 923 400 1287 745 518 490 837 1119 934 1838 29 213 32 575 6 780 -86 698 -363 1286 -839 1780 -525 546 -1205 883 -1927 955 -145 14 -572 11 -711 -6z m84 -882 c78 -59 132 -136 185 -268 26 -65 53 -120 58 -121 6 -2 21 25 33 59 36 100 101 219 145 267 40 44 111 101 126 101 4 0 -17 -73 -48 -162 -32 -90 -76 -219 -99 -288 l-41 -125 23 -85 c12 -47 40 -128 62 -180 79 -187 128 -294 138 -297 10 -3 56 100 214 487 50 124 126 297 167 386 l75 161 86 51 c48 28 88 48 90 43 7 -21 -224 -598 -373 -931 -18 -41 -57 -129 -85 -195 -28 -66 -61 -142 -73 -169 l-21 -48 -71 7 c-38 4 -71 8 -73 10 -1 1 -59 132 -127 291 -69 159 -129 298 -134 309 l-9 20 -7 -20 c-5 -11 -27 -62 -51 -113 -24 -52 -44 -96 -44 -98 0 -3 -14 -35 -31 -72 -18 -37 -58 -128 -90 -201 -33 -74 -63 -139 -68 -144 -31 -31 -141 60 -193 160 -36 68 -73 151 -189 423 -34 80 -84 197 -111 260 -45 103 -181 448 -195 493 -3 9 0 17 6 17 20 0 94 -41 138 -77 67 -54 84 -89 275 -553 44 -107 95 -231 113 -275 18 -44 46 -111 62 -149 16 -38 34 -71 41 -74 14 -4 11 -9 166 372 l77 189 -62 151 c-117 283 -164 426 -142 426 4 0 30 -17 57 -38z m-263 -1587 c382 -899 502 -1174 510 -1169 5 3 9 10 9 16 0 5 6 24 14 41 8 18 123 288 256 601 133 313 246 578 251 588 9 16 23 18 123 18 l113 0 549 -1291 c302 -710 551 -1295 552 -1300 2 -6 -56 -8 -139 -7 l-142 3 -104 255 c-652 1595 -827 2020 -833 2020 -4 0 -69 -143 -143 -317 -279 -654 -347 -817 -347 -836 0 -7 99 -256 220 -552 121 -296 220 -544 220 -552 0 -15 -82 -18 -187 -7 l-60 7 -116 286 c-211 524 -240 592 -249 589 -4 -2 -85 -194 -178 -426 -94 -233 -175 -432 -180 -443 -10 -17 -23 -19 -125 -19 -90 0 -115 3 -115 14 0 7 75 197 166 422 91 225 190 471 220 547 l56 138 -41 97 c-210 509 -440 1047 -448 1049 -5 2 -217 -507 -472 -1129 -255 -623 -466 -1137 -470 -1141 -4 -4 -69 -6 -144 -5 l-136 3 36 85 c19 47 218 519 443 1050 224 531 438 1037 475 1125 61 146 133 286 154 299 19 12 178 55 196 53 14 -1 31 -29 66 -112z"/>
 </g>

</svg>